<svg width="15" height="17" viewBox="0 0 15 17" fill="none" xmlns="http://www.w3.org/2000/svg">
<path d="M14.7524 12.186C14.7212 12.4965 14.6093 12.7934 14.4279 13.0473C14.2627 13.292 14.0398 13.4923 13.7788 13.6304C13.5178 13.7684 13.2269 13.8401 12.9316 13.839H10.6041C10.563 14.0522 10.502 14.261 10.422 14.4628C10.2627 14.8501 10.0281 15.2019 9.73182 15.4978C9.43558 15.7938 9.08358 16.0281 8.69619 16.1871C8.30432 16.3454 7.88394 16.423 7.46119 16.4167H7.39786C7.00675 16.413 6.61989 16.3351 6.25786 16.1871C5.86454 16.0344 5.50829 15.7996 5.21286 15.4983C4.91455 15.2042 4.68009 14.8517 4.52411 14.4628C4.44406 14.2608 4.3831 14.0516 4.34203 13.8382H2.10953C1.81795 13.8615 1.52514 13.8124 1.25717 13.6951C0.9892 13.5778 0.754402 13.3961 0.573692 13.1661C0.402733 12.8885 0.295582 12.5764 0.259985 12.2523C0.224388 11.9282 0.261233 11.6003 0.367859 11.2922C0.540007 10.8352 0.774444 10.4042 1.06453 10.0113C1.39798 9.60851 1.62161 9.12635 1.71369 8.61162C1.71369 6.32687 1.71369 5.55183 2.96453 4.06508C3.3769 3.57242 3.88972 3.1735 4.46869 2.895L5.08619 2.59416C5.11642 2.57505 5.14318 2.55096 5.16536 2.52291C5.18927 2.49294 5.20556 2.45763 5.21286 2.42C5.30276 2.03394 5.48786 1.67653 5.75128 1.38034C6.0147 1.08415 6.34806 0.858597 6.72098 0.724248C7.09402 0.589566 7.49485 0.550449 7.88689 0.610465C8.27893 0.670481 8.6497 0.827719 8.96536 1.06783C9.39833 1.41275 9.68184 1.91115 9.75703 2.45958V2.53875C9.78005 2.57107 9.80975 2.59807 9.84411 2.61791L10.4141 2.895C10.992 3.17208 11.505 3.56791 11.9183 4.05716C13.1691 5.55183 13.1691 6.32687 13.1691 8.61162C13.2752 9.15787 13.5174 9.66929 13.8737 10.0984C14.1587 10.4792 14.3899 10.8972 14.5624 11.3397C14.6923 11.6025 14.758 11.8923 14.7524 12.186Z" fill="black"/>
</svg>
