<svg width="10" height="17" viewBox="0 0 10 17" fill="none" xmlns="http://www.w3.org/2000/svg">
<path d="M3.33333 14.0417H5.83333V16.4167H3.33333V14.0417ZM5 0.583336C9.45833 0.757503 11.4 5.0325 8.75 8.23875C8.05833 9.03042 6.94167 9.55292 6.39167 10.2179C5.83333 10.875 5.83333 11.6667 5.83333 12.4583H3.33333C3.33333 11.1363 3.33333 10.02 3.89167 9.22834C4.44167 8.43667 5.55833 7.96959 6.25 7.44709C8.26667 5.67375 7.76667 3.16417 5 2.95834C4.33696 2.95834 3.70107 3.20856 3.23223 3.65396C2.76339 4.09936 2.5 4.70345 2.5 5.33334H0C0 4.07356 0.526784 2.86538 1.46447 1.97458C2.40215 1.08378 3.67392 0.583336 5 0.583336Z" fill="black"/>
</svg>
