<svg xmlns="http://www.w3.org/2000/svg" xmlns:xlink="http://www.w3.org/1999/xlink" viewBox="0,0,255.99768,255.99768" width="120px" height="120px" fill-rule="nonzero"><g fill="none" fill-rule="nonzero" stroke="none" stroke-width="1" stroke-linecap="butt" stroke-linejoin="miter" stroke-miterlimit="10" stroke-dasharray="" stroke-dashoffset="0" font-family="none" font-weight="none" font-size="none" text-anchor="none" style="mix-blend-mode: normal"><g transform="scale(2.13333,2.13333)"><rect x="56" y="33" width="8" height="21" fill="#c59433"></rect><rect x="-6.15313" y="79.54961" transform="rotate(-27.408)" width="30.414" height="8" fill="#000000" opacity="0.35"></rect><rect x="-32.30628" y="82.26067" transform="rotate(-62.594)" width="8" height="30.414" fill="#000000" opacity="0.35"></rect><rect x="-4.31184" y="75.9986" transform="rotate(-27.408)" width="30.414" height="8" fill="#c59433"></rect><rect x="-28.75522" y="80.4195" transform="rotate(-62.594)" width="8" height="30.414" fill="#c59433"></rect><path d="M109,70v-14l-13.371,-2.971c-0.805,-2.881 -1.947,-5.618 -3.386,-8.169l7.355,-11.558l-9.899,-9.9l-11.559,7.355c-2.551,-1.438 -5.288,-2.58 -8.168,-3.384l-2.972,-13.373h-14l-2.972,13.373c-2.88,0.805 -5.617,1.946 -8.168,3.384l-11.559,-7.355l-9.899,9.9l7.355,11.558c-1.439,2.551 -2.581,5.289 -3.386,8.169l-13.371,2.971v14l13.37,2.971c0.805,2.881 1.947,5.62 3.386,8.172l-7.354,11.556l9.899,9.899l11.555,-7.353c2.552,1.439 5.291,2.582 8.173,3.387l2.971,13.368h14l2.971,-13.368c2.882,-0.805 5.621,-1.948 8.173,-3.387l11.555,7.353l9.899,-9.899l-7.354,-11.556c1.439,-2.552 2.581,-5.29 3.386,-8.172zM60,89c-14.358,0 -25.998,-11.64 -25.998,-25.998c0,-14.358 11.64,-25.998 25.998,-25.998c14.358,0 25.998,11.64 25.998,25.998c0,14.358 -11.64,25.998 -25.998,25.998z" fill="#000000" opacity="0.35"></path><path d="M109,66v-14l-13.371,-2.971c-0.805,-2.881 -1.947,-5.618 -3.386,-8.169l7.355,-11.558l-9.899,-9.9l-11.559,7.355c-2.551,-1.438 -5.288,-2.58 -8.168,-3.384l-2.972,-13.373h-14l-2.972,13.373c-2.88,0.805 -5.617,1.946 -8.168,3.384l-11.559,-7.355l-9.899,9.9l7.355,11.558c-1.439,2.551 -2.581,5.289 -3.386,8.169l-13.371,2.971v14l13.37,2.971c0.805,2.881 1.947,5.62 3.386,8.172l-7.354,11.556l9.899,9.899l11.555,-7.353c2.552,1.439 5.291,2.582 8.173,3.387l2.971,13.368h14l2.971,-13.368c2.882,-0.805 5.621,-1.948 8.173,-3.387l11.555,7.353l9.899,-9.899l-7.354,-11.556c1.439,-2.552 2.581,-5.29 3.386,-8.172zM60,85c-14.358,0 -25.998,-11.64 -25.998,-25.998c0,-14.358 11.64,-25.998 25.998,-25.998c14.358,0 25.998,11.64 25.998,25.998c0,14.358 -11.64,25.998 -25.998,25.998z" fill="#8e0004"></path><path d="M60,28c-17.121,0 -31,13.879 -31,31c0,17.121 13.879,31 31,31c17.121,0 31,-13.879 31,-31c0,-17.121 -13.879,-31 -31,-31zM60,83.005c-13.256,0 -24.002,-10.746 -24.002,-24.002c0,-13.257 10.746,-24.003 24.002,-24.003c13.256,0 24.002,10.746 24.002,24.002c0,13.256 -10.746,24.003 -24.002,24.003z" fill="#c00007"></path><circle cx="60" cy="63" r="12" fill="#000000" opacity="0.35"></circle><circle cx="60" cy="59" r="12" fill="#8e0004"></circle></g></g></svg>